{"title":"The.Invitation.2016.WEBRip.480p.x264.AAC-VYTO [P2PDL]","uid":14280341,"size":403960003,"categoryP":"video","categoryS":"movies","magnet":"?xt=urn:btih:53c5383d05615dbc1a6336f07c7fc8e75cf00705&amp;dn=The.Invitation.2016.WEBRip.480p.x264.AAC-VYTO+%5BP2PDL%5D&amp;tr=udp%3A%2F%2Ftracker.leechers-paradise.org%3A6969&amp;tr=udp%3A%2F%2Fzer0day.ch%3A1337&amp;tr=udp%3A%2F%2Fopen.demonii.com%3A1337&amp;tr=udp%3A%2F%2Ftracker.coppersurfer.tk%3A6969&amp;tr=udp%3A%2F%2Fexodus.desync.com%3A6969","seeders":3,"leechers":2,"uploader":"VYTOP2PDL","files":7,"time":1460348917,"description":"____    ____ ____    ____ .___________.  ______   \r\n     /   /      /   / |           | /  __    \r\n    /   /      /   /  `---|  |----`|  |  |  | \r\n        /     _    _/       |  |     |  |  |  | \r\n       /        |  |         |  |     |  `--'  | \r\n    __/         |__|         |__|      ______/  \r\n                                                  \r\nPresenting Small Encodes with quality for years!\r\n                                                                                                   \r\n                                                                                                   \r\n\r\n\r\nThe.Invitation.2016.WEBRip.480p.x264.AAC-VYTO\r\n\r\n\r\nGenre: Horror, Thriller   \nhttp://www.imdb.com/title/tt2400463/\r\n\r\n\r\nFormat                                   : MPEG-4\r\nFile size                                : 376 MiB\r\nDuration                                 : 1h 40mn\r\nOverall bit rate                         : 524 Kbps\r\n\r\nVideo\r\nFormat                                   : AVC\r\nBit rate                                 : 481 Kbps\r\nWidth                                    : 720 pixels\r\nHeight                                   : 304 pixels\r\nDisplay aspect ratio                     : 2.35:1\r\nFrame rate mode                          : Constant\r\nFrame rate                               : 23.976 fps\r\nBit depth                                : 8 bits\r\nStream size                              : 345 MiB (92%)\r\nWriting library                          : x264\r\n\r\nAudio\r\nFormat                                   : AAC\r\nBit rate mode                            : Variable\r\nBit rate                                 : 39.9 Kbps\r\nChannel(s)                               : 2 channels\r\nChannel positions                        : Front: L R\r\nSampling rate                            : 48.0 KH\r\nStream size                              : 28.6 MiB (8%)\r\nLanguage                                 : English\r\n\r\nSubtitle                                 : Yes (English)\r\n\r\nScreeen Shots: (Click the link to view)\r\n \nhttps://ititli.com/Xhm \nhttps://ititli.com/Xhx \nhttps://ititli.com/Xh7 \nhttps://ititli.com/XhC \nhttps://ititli.com/XhF \nhttps://ititli.com/XhJ \nhttps://ititli.com/Xh5 \nhttps://ititli.com/XhB\r\n\r\n----------------------------------------------------------------------------------------------------\r\n\r\n\r\nEncoder Notes: Looking For Early Access To Anything You Can Provide WEBDL, DVDScr, DVDR, BluRay,\r\nDirect Audio, Music Releases and Seedboxes. If You Got anything to offer please contact us.\r\n\r\nSupport us by donating BC - 1FgwdzPsd1y25Gea8wP1qni35uGCtmkRCD\r\n\r\nFind us and join us!","torrent":{"xt":"urn:btih:53c5383d05615dbc1a6336f07c7fc8e75cf00705","amp;dn":"The.Invitation.2016.WEBRip.480p.x264.AAC-VYTO+%5BP2PDL%5D","amp;tr":["udp%3A%2F%2Ftracker.leechers-paradise.org%3A6969","udp%3A%2F%2Fzer0day.ch%3A1337","udp%3A%2F%2Fopen.demonii.com%3A1337","udp%3A%2F%2Ftracker.coppersurfer.tk%3A6969","udp%3A%2F%2Fexodus.desync.com%3A6969"],"infoHash":"53c5383d05615dbc1a6336f07c7fc8e75cf00705","infoHashBuffer":{"type":"Buffer","data":[83,197,56,61,5,97,93,188,26,99,54,240,124,127,200,231,92,240,7,5]},"announce":[],"urlList":[]}}